Coordinates
nRows=12
nColumns=24

# SIMM Motion File Header:
name Coordinates
datacolumns 24
datarows 12
otherdata 1
range 0.60433000000000003000 0.61533000000000004000
endheader
time	pelvis_tx	pelvis_ty	pelvis_tz	pelvis_tilt	pelvis_list	pelvis_rotation	hip_flexion_r	hip_adduction_r	hip_rotation_r	knee_angle_r	ankle_angle_r	subtalar_angle_r	mtp_angle_r	hip_flexion_l	hip_adduction_l	hip_rotation_l	knee_angle_l	ankle_angle_l	subtalar_angle_l	mtp_angle_l	lumbar_extension	lumbar_bending	lumbar_rotation
      0.60433000000000003000	      0.60883447189546847000	      0.86488698617887483000	     -0.24343271993147705000	      3.90360873730984050000	      0.34611633069169356000	     -3.82319085428664710000	    -14.52786463792585700000	     -2.38284840137959900000	      0.39355217365951861000	    -33.76813899038237600000	      1.77769608732054190000	      0.00000000000007669356	     -0.00000000000050166326	     22.71349325748024800000	      0.92672375136789109000	      7.44774021160817060000	    -24.03423743943960700000	     -2.48253048556516240000	      0.00000000000001844025	      0.00000000000004170383	    -13.61585908308550500000	     -1.36552289815457530000	     15.67883047445655900000
      0.60533000000000003000	      0.61024240887911518000	      0.86503825431491477000	     -0.24357256056999624000	      3.93139848075170040000	      0.37712246581050951000	     -3.82577463546061300000	    -14.41676240365816500000	     -2.46049236912376080000	      0.31950866548775858000	    -34.09287012917042900000	      1.56470357340268860000	      0.00000000000007753977	     -0.00000000000050478789	     22.64266581185758700000	      0.97765315161334509000	      7.42279947086569610000	    -24.14929756779073200000	     -2.36509667683931160000	      0.00000000000001851857	      0.00000000000004174351	    -13.63137977494861100000	     -1.40505180575192970000	     15.66367542453370200000
      0.60633000000000004000	      0.61165034586276179000	      0.86518952245095482000	     -0.24371240120851545000	      3.95918822419355990000	      0.40812860092932546000	     -3.82835841663457850000	    -14.30566016939047500000	     -2.53813633686792260000	      0.24546515731599855000	    -34.41760126795848200000	      1.35171105948483560000	      0.00000000000007838598	     -0.00000000000050791253	     22.57183836623492500000	      1.02858255185879900000	      7.39785873012322170000	    -24.26435769614185700000	     -2.24766286811346070000	      0.00000000000001859688	      0.00000000000004178319	    -13.64690046681171700000	     -1.44458071334928410000	     15.64852037461084500000
      0.60733000000000004000	      0.61305208694617552000	      0.86534322344312498000	     -0.24384852070112542000	      3.98735460750934450000	      0.43836875024665245000	     -3.83110968485035700000	    -14.19174889875240500000	     -2.61391547966501260000	      0.17282363445357057000	    -34.74337120649477100000	      1.14815606627709870000	      0.00000000000007921821	     -0.00000000000051100793	     22.49865939701389600000	      1.07761882416119900000	      7.36891396651597220000	    -24.37511848860030700000	     -2.13066897340002460000	      0.00000000000001868346	      0.00000000000004183168	    -13.66339451278984100000	     -1.48378036665648060000	     15.63482457869107600000
      0.60833000000000004000	      0.61445176272951174000	      0.86549773538733854000	     -0.24398339981176567000	      4.01564653744977120000	      0.46835357096348323000	     -3.83391678208007300000	    -14.07690128265754100000	     -2.68907301414641210000	      0.10064944002758655000	    -35.06948741161380000000	      0.94774691330606664000	      0.00000000000008004580	     -0.00000000000051409358	     22.42469658659340600000	      1.12602405381591430000	      7.33863452862046550000	    -24.48444616909453200000	     -2.01382171669072730000	      0.00000000000001877280	      0.00000000000004188309	    -13.68021301013963900000	     -1.52287026853362460000	     15.62161520077233400000
      0.60933000000000004000	      0.61584929021076096000	      0.86565279739715406000	     -0.24411694249524554000	      4.04387135942723840000	      0.49810832073839867000	     -3.83685602653805140000	    -13.96093195107079400000	     -2.76358564441467360000	      0.02910727268252053700	    -35.39596158682710600000	      0.75264858337695795000	      0.00000000000008086795	     -0.00000000000051716991	     22.35013738548087400000	      1.17379759680699940000	      7.30706250334895470000	    -24.59230369109351600000	     -1.89670574288023990000	      0.00000000000001883660	      0.00000000000004197237	    -13.69713674193749500000	     -1.56187134961614120000	     15.60893953217216000000
      0.61033000000000004000	      0.61724037278574961000	      0.86580950960377534000	     -0.24424647589724430000	      4.07189485751582760000	      0.52717285768756939000	     -3.84019171268081650000	    -13.84159747300840200000	     -2.83616356204352420000	     -0.04053881341979455300	    -35.72350967232323900000	      0.57348272257359356000	      0.00000000000008167383	     -0.00000000000052021826	     22.27378901229219800000	      1.21967607980719640000	      7.27161271594944040000	    -24.69575073760677600000	     -1.77878361776618350000	      0.00000000000001882375	      0.00000000000004217523	    -13.71437617707952900000	     -1.60060596831477550000	     15.59786499152768800000
      0.61133000000000004000	      0.61863145536073827000	      0.86596622181039662000	     -0.24437600929924302000	      4.09991835560441760000	      0.55623739463674005000	     -3.84352739882358160000	    -13.72226299494600900000	     -2.90874147967237470000	     -0.11018489952210964000	    -36.05105775781937900000	      0.39431686177022907000	      0.00000000000008247970	     -0.00000000000052326661	     22.19744063910352200000	      1.26555456280739340000	      7.23616292854992690000	    -24.79919778412003600000	     -1.66086149265212750000	      0.00000000000001881090	      0.00000000000004237809	    -13.73161561222156200000	     -1.63934058701341010000	     15.58679045088321600000
      0.61233000000000004000	      0.62001681752133675000	      0.86612423584346310000	     -0.24450207425495099000	      4.12761912651963050000	      0.58476283101595161000	     -3.84724046750324520000	    -13.59996471143728200000	     -2.97963825058381330000	     -0.17807273827578760000	    -36.37916012607367100000	      0.22910186915169178000	      0.00000000000008329379	     -0.00000000000052631952	     22.11972472980900100000	      1.30988588167294680000	      7.19750971678951680000	    -24.89900600340303800000	     -1.54056410109243090000	      0.00000000000001876341	      0.00000000000004262401	    -13.74895906344563900000	     -1.67787486154287110000	     15.57707375823181400000
      0.61333000000000004000	      0.62140027287713839000	      0.86628268381867801000	     -0.24462698306189540000	      4.15521232171038600000	      0.61310856720517737000	     -3.85107933036187510000	    -13.47667849277978300000	     -3.04997463925611580000	     -0.24537449457992166000	    -36.70744725524734500000	      0.06853716592808244100	      0.00000000000008411062	     -0.00000000000052937394	     22.04155297514586600000	      1.35370147916028730000	      7.15778869690881160000	    -24.99760128027596200000	     -1.41947495405085690000	      0.00000000000001870439	      0.00000000000004288429	    -13.76633718669706100000	     -1.71634235468260780000	     15.56780968157809900000
      0.61433000000000004000	      0.62277723793598261000	      0.86644269162389209000	     -0.24474825037273101000	      4.18239607807638250000	      0.64084219506292783000	     -3.85522958744977020000	    -13.35019301545319900000	     -3.11837300829556250000	     -0.31078706323910760000	    -37.03564641803965400000	     -0.08028284743174875200	      0.00000000000008492118	     -0.00000000000053242373	     21.96198467804558900000	      1.39588823939411830000	      7.11476633324308590000	    -25.09248744210671900000	     -1.29397764281950730000	      0.00000000000001862808	      0.00000000000004324608	    -13.78377976193809000000	     -1.75450078782813850000	     15.55990175931376200000
      0.61533000000000004000	      0.62415327580954716000	      0.86660292226196323000	     -0.24486899746983679000	      4.20952134318169780000	      0.66848837887332457000	     -3.85942432942755960000	    -13.22325050117389000000	     -3.18649451738745790000	     -0.37592974794901479000	    -37.36383301420604400000	     -0.22742504795389501000	      0.00000000000008573083	     -0.00000000000053547286	     21.88221687488286100000	      1.43784230859173360000	      7.07127234903664180000	    -25.18684373036002100000	     -1.16785059384676070000	      0.00000000000001854930	      0.00000000000004362239	    -13.80123154460620500000	     -1.79261506954592550000	     15.55218757339076400000
